<svg xmlns="http://www.w3.org/2000/svg" width="205.537" height="207.244" viewBox="0 0 205.537 207.244"><g transform="translate(79.602 103.944) rotate(-30)"><path d="M0,0C29.125,0,52.734,22.683,52.734,50.666S29.125,101.332,0,101.332Z" transform="translate(72.23 -78.322) rotate(45)"/><path d="M0,0C29.125,0,52.734,22.683,52.734,50.666S29.125,101.332,0,101.332Z" transform="translate(-71.074 65.775) rotate(-135)"/><path d="M0,0C29.125,0,52.734,22.683,52.734,50.666S29.125,101.332,0,101.332Z" transform="translate(111.522 -43.166) rotate(45)"/><path d="M0,0C29.125,0,52.734,22.683,52.734,50.666S29.125,101.332,0,101.332Z" transform="translate(-31.782 100.93) rotate(-135)"/></g></svg>