<svg xmlns="http://www.w3.org/2000/svg" width="150" height="150" viewBox="0 0 348.344 342.423"><g transform="translate(411.97 406.021) rotate(180)"><g transform="translate(472.609 236.412) rotate(135)"><g transform="translate(64.308 0.804)"><g transform="translate(8.785 197.373)"><path d="M 7.181644916534424 85.62680816650391 C 5.177510738372803 82.30796051025391 3.348575353622437 78.83177185058594 1.726489424705505 75.25733184814453 L 55.70305252075195 1.824113607406616 C 56.37737655639648 2.089486598968506 57.06192779541016 2.350636720657349 57.75299453735352 2.606162309646606 L 7.181644916534424 85.62680816650391 Z" stroke="none"/><path d="M 51.19126129150391 10.49489593505859 L 3.458171844482422 75.43409729003906 C 4.610538482666016 77.91519165039062 5.863265991210938 80.34465789794922 7.206058502197266 82.70336151123047 L 51.19126129150391 10.49489593505859 M 55.18220901489258 7.62939453125e-06 C 56.765625 0.6445236206054688 58.36470794677734 1.247695922851562 59.98982238769531 1.817436218261719 L 7.194065093994141 88.48978424072266 C 4.471881866455078 84.22696685791016 2.0684814453125 79.73785400390625 -3.814697265625e-06 75.07347869873047 L 55.18220901489258 7.62939453125e-06 Z" stroke="none" fill="#fff"/></g><g transform="translate(2.471 194.408)"><path d="M 4.890174865722656 70.44924163818359 C 3.594517469406128 66.81978607177734 2.504283905029297 63.09474945068359 1.638056516647339 59.33531188964844 L 55.25490188598633 1.834388613700867 C 55.99701309204102 2.190399408340454 56.75927352905273 2.544138193130493 57.53762435913086 2.893737316131592 L 4.890174865722656 70.44924163818359 Z" stroke="none"/><path d="M 52.16432952880859 7.348358154296875 L 3.281402587890625 59.77241897583008 C 3.890045166015625 62.31884002685547 4.602699279785156 64.84708404541016 5.413387298583984 67.337646484375 L 52.16432952880859 7.348358154296875 M 54.91445541381836 1.52587890625e-05 C 56.55627822875977 0.8125152587890625 58.22271347045898 1.574104309082031 59.90644454956055 2.294349670410156 L 4.4219970703125 73.49019622802734 C 2.59600830078125 68.78312683105469 1.1138916015625 63.90944671630859 -3.814697265625e-06 58.89253997802734 L 54.91445541381836 1.52587890625e-05 Z" stroke="none" fill="#fff"/></g><g transform="translate(18.978 199.751)"><path d="M 9.22403621673584 99.56179809570312 C 6.571315288543701 96.68270874023438 4.07513427734375 93.63529205322266 1.779023170471191 90.47215270996094 L 52.1544189453125 1.806970357894897 C 52.75777816772461 1.999814867973328 53.36596298217773 2.187108993530273 53.97650146484375 2.368094205856323 L 9.22403621673584 99.56179809570312 Z" stroke="none"/><path d="M 47.04254913330078 13.84081268310547 L 3.563117980957031 90.36846923828125 C 5.218235015869141 92.60223388671875 6.973796844482422 94.77410125732422 8.814235687255859 96.86528778076172 L 47.04254913330078 13.84081268310547 M 51.45586013793945 1.52587890625e-05 C 52.98006057739258 0.5109176635742188 54.52107620239258 0.9801177978515625 56.07055282592773 1.40667724609375 L 9.656673431396484 102.2085952758789 C 6.155689239501953 98.57339477539062 2.93115234375 94.68750762939453 -3.814697265625e-06 90.56688690185547 L 51.45586013793945 1.52587890625e-05 Z" stroke="none" fill="#fff"/></g><g transform="translate(21.859 166.511)"><path d="M1.29.661,0,.946C.243.628.494.31.745,0,.921.226,1.105.443,1.29.661Z" stroke="none"/><path d="M -2.959308631034219e-06 0.9463154673576355 C 0.2426770478487015 0.6278154253959656 0.4937270283699036 0.3096554279327393 0.7450570464134216 -4.561100013233954e-06 C 0.9211270213127136 0.2262454330921173 1.10526704788208 0.4434554278850555 1.28961706161499 0.6614254117012024 L -2.959308631034219e-06 0.9463154673576355 Z" stroke="none" fill="#fff"/></g><g transform="translate(1.826 181.368)"><path d="M 2.188287019729614 26.92903900146484 C 2.93409252166748 23.63525772094727 3.853190898895264 20.36257362365723 4.933138847351074 17.15761756896973 L 35.23798751831055 1.781747221946716 C 36.19269561767578 2.559777736663818 37.18717193603516 3.338148832321167 38.21329116821289 4.110551834106445 L 2.188287019729614 26.92903900146484 Z" stroke="none"/><path d="M 35.05161285400391 3.558332443237305 L 6.161209106445312 18.216552734375 C 5.567733764648438 20.01510047912598 5.025665283203125 21.83428001403809 4.537311553955078 23.66556739807129 L 35.59827423095703 3.991336822509766 C 35.41477966308594 3.847047805786133 35.23262023925781 3.702760696411133 35.05161285400391 3.558332443237305 M 35.43453216552734 1.9073486328125e-06 C 37.19266128540039 1.465471267700195 39.01037216186523 2.864080429077148 40.86924362182617 4.203840255737305 L 0 30.09070014953613 C 0.9048500061035156 25.30059051513672 2.152072906494141 20.62699127197266 3.709922790527344 16.09622192382812 L 35.43453216552734 1.9073486328125e-06 Z" stroke="none" fill="#fff"/></g><g transform="translate(0.042 190.807)"><path d="M 2.544177293777466 54.94392395019531 C 1.995963335037231 51.2410774230957 1.653171300888062 47.46988296508789 1.52180802822113 43.68978881835938 L 50.83026504516602 1.830183506011963 C 51.67917633056641 2.318930625915527 52.52334594726562 2.789159059524536 53.35730743408203 3.237854242324829 L 2.544177293777466 54.94392395019531 Z" stroke="none"/><path d="M 50.06793594360352 4.444980621337891 L 3.048664093017578 44.3612174987793 C 3.151897430419922 46.81866836547852 3.34576416015625 49.27116775512695 3.628463745117188 51.70054244995117 L 50.06793594360352 4.444980621337891 M 50.66836547851562 3.814697265625e-06 C 52.36025619506836 0.9968223571777344 54.0854377746582 1.951572418212891 55.84415817260742 2.847335815429688 L 1.540946960449219 58.10482406616211 C 0.6614570617675781 53.1899528503418 0.1419868469238281 48.14711380004883 -3.814697265625e-06 43.01408386230469 L 50.66836547851562 3.814697265625e-06 Z" stroke="none" fill="#fff"/></g><g transform="translate(89.788 204.692)"><path d="M 12.4413013458252 127.3402481079102 C 12.10778713226318 127.3396301269531 11.77131748199463 127.3377380371094 11.44143962860107 127.3319473266602 C 8.116911888122559 127.2815933227539 4.801215171813965 127.0709457397461 1.562686204910278 126.7049407958984 L 7.340396881103516 1.586005687713623 C 7.799604892730713 1.609943628311157 8.261988639831543 1.631479859352112 8.72627067565918 1.650551557540894 L 12.4413013458252 127.3402481079102 Z" stroke="none"/><path d="M 10.89576053619385 125.8219299316406 L 7.855265617370605 22.95402336120605 L 3.126298189163208 125.3618850708008 C 5.685981273651123 125.6137847900391 8.287368774414062 125.7679595947266 10.89576053619385 125.8219299316406 M 12.92286109924316 128.8405456542969 C 12.42038154602051 128.8405456542969 11.91794109344482 128.8405456542969 11.41508102416992 128.8317108154297 C 7.554741382598877 128.7732543945312 3.743101596832275 128.5050964355469 1.488189695919573e-06 128.0278167724609 L 5.912041664123535 -7.172851383074885e-06 C 7.32832145690918 0.09191282838582993 8.751701354980469 0.158412829041481 10.18408107757568 0.2014528214931488 L 13.98604106903076 128.8317108154297 C 13.63464164733887 128.8405456542969 13.28268146514893 128.8405456542969 12.92286109924316 128.8405456542969 Z" stroke="none" fill="#fff"/></g><g transform="translate(102.191 204.86)"><path d="M 10.31324195861816 126.88720703125 L 1.607379555702209 1.560748934745789 C 2.015227317810059 1.556051135063171 2.429583549499512 1.54872465133667 2.853307008743286 1.538715839385986 L 20.90072441101074 125.9292068481445 C 17.3735523223877 126.3616714477539 13.82471179962158 126.6827850341797 10.31324195861816 126.88720703125 Z" stroke="none"/><path d="M 11.70637798309326 125.2967529296875 C 14.19505310058594 125.1289749145508 16.69819450378418 124.9027481079102 19.1950569152832 124.6199722290039 L 4.737082481384277 24.96945190429688 L 11.70637798309326 125.2967529296875 M 8.919181823730469 128.4641571044922 L 2.197570893258671e-06 0.06707855314016342 L 0.5191822052001953 0.06707855314016342 C 1.733782172203064 0.06707855314016342 2.948422193527222 0.04189855232834816 4.145761966705322 -1.447753902539262e-06 L 22.60436248779297 127.2245407104492 C 18.09836196899414 127.8186950683594 13.53394222259521 128.2377014160156 8.919181823730469 128.4641571044922 Z" stroke="none" fill="#fff"/></g><g transform="translate(115.206 203.595)"><path d="M 39.16730499267578 120.2134094238281 L 1.968113541603088 1.837207674980164 C 2.341683149337769 1.785056471824646 2.714119911193848 1.730425477027893 3.084412336349487 1.673457264900208 L 48.54207611083984 116.816650390625 C 45.49813842773438 118.0258636474609 42.35626602172852 119.1642456054688 39.16730499267578 120.2134094238281 Z" stroke="none"/><path d="M 40.14051818847656 118.3068923950195 C 42.32381820678711 117.566650390625 44.4808235168457 116.7851867675781 46.5945930480957 115.9686126708984 L 11.35909080505371 26.71788787841797 L 40.14051818847656 118.3068923950195 M 38.19001388549805 122.1069183349609 L -4.746593276649946e-06 0.5776486396789551 C 1.356686115264893 0.418666809797287 2.705086231231689 0.2260667979717255 4.036413669586182 1.225142023031367e-05 L 50.48432159423828 117.6515045166016 C 46.46426773071289 119.2928314208984 42.36021423339844 120.7757949829102 38.19001388549805 122.1069183349609 Z" stroke="none" fill="#fff"/></g><g transform="translate(121.898 202.289)"><path d="M 52.31365585327148 113.5467758178711 L 2.142558336257935 1.953338384628296 C 2.512541055679321 1.876615047454834 2.885996341705322 1.796871066093445 3.261985063552856 1.71430230140686 L 60.82706069946289 109.1547775268555 C 58.02347183227539 110.7036743164062 55.17032241821289 112.1755828857422 52.31365585327148 113.5467758178711 Z" stroke="none"/><path d="M 53.0481071472168 111.5223159790039 C 54.97619247436523 110.5743255615234 56.89879608154297 109.5819549560547 58.80242538452148 108.5521392822266 L 14.73449993133545 26.302978515625 L 53.0481071472168 111.5223159790039 M 51.5732536315918 115.5580062866211 L 1.88099249953666e-07 0.8457887768745422 C 1.356472969055176 0.5945523977279663 2.705254793167114 0.3100796937942505 4.045218467712402 6.958007816137979e-06 L 62.84552764892578 109.7459487915039 C 59.1776008605957 111.8143920898438 55.41703796386719 113.7573318481445 51.5732536315918 115.5580062866211 Z" stroke="none" fill="#fff"/></g><g transform="translate(108.665 204.441)"><path d="M 24.99097633361816 124.699577331543 L 1.788626432418823 1.699535846710205 C 2.178047895431519 1.671529769897461 2.564110279083252 1.641392707824707 2.945787906646729 1.609204053878784 L 35.08004379272461 122.4597091674805 C 31.75863265991211 123.3094787597656 28.37672996520996 124.0602951049805 24.99097633361816 124.699577331543 Z" stroke="none"/><path d="M 26.18557739257812 122.9403839111328 C 28.54948043823242 122.4711074829102 30.90728187561035 121.9477996826172 33.23945999145508 121.3748168945312 L 7.947460174560547 26.25667190551758 L 26.18557739257812 122.9403839111328 M 23.79379272460938 126.4450912475586 L -7.151100817281986e-06 0.3096585273742676 C 1.364738345146179 0.235058531165123 2.72162914276123 0.1335857957601547 4.070029258728027 3.983931037510047e-06 L 36.91693878173828 123.5306549072266 C 32.60393905639648 124.6778411865234 28.23212051391602 125.6494750976562 23.79379272460938 126.4450912475586 Z" stroke="none" fill="#fff"/></g><g transform="translate(128.807 200.43)"><path d="M 63.98129272460938 104.9668197631836 L 2.303077220916748 2.080472707748413 C 2.682660341262817 1.972738265991211 3.063108205795288 1.862541198730469 3.443610668182373 1.750112891197205 L 71.52825927734375 99.75782012939453 C 69.08409118652344 101.5483856201172 66.55482482910156 103.2941131591797 63.98129272460938 104.9668197631836 Z" stroke="none"/><path d="M 64.46425628662109 102.8551254272461 C 66.15541076660156 101.7330093383789 67.82415008544922 100.5806579589844 69.45793151855469 99.40670776367188 L 17.93753433227539 25.24321937561035 L 64.46425628662109 102.8551254272461 M 63.49081039428711 107.0659790039062 L -6.919352017575875e-06 1.1560138463974 C 1.365309715270996 0.7959638237953186 2.713526487350464 0.4105804562568665 4.054259777069092 1.379801415168913e-05 L 73.59092712402344 100.0978775024414 C 70.31685638427734 102.5429000854492 66.94977569580078 104.8633804321289 63.49081039428711 107.0659790039062 Z" stroke="none" fill="#fff"/></g><g transform="translate(6.566 175.33)"><path d="M 2.813493967056274 16.2574520111084 C 4.003598690032959 13.42320823669434 5.33104419708252 10.63492393493652 6.779391288757324 7.928699016571045 L 23.63782501220703 1.735108494758606 C 24.67083740234375 2.738517045974731 25.73216819763184 3.725531101226807 26.81198883056641 4.687130451202393 L 2.813493967056274 16.2574520111084 Z" stroke="none"/><path d="M 23.27409744262695 3.466755867004395 L 7.834903717041016 9.138925552368164 C 7.142148971557617 10.45198726654053 6.478475570678711 11.78369426727295 5.845512390136719 13.13040256500244 L 24.15952110290527 4.300724029541016 C 23.86252403259277 4.024319648742676 23.56724739074707 3.74620532989502 23.27409744262695 3.466755867004395 M 24.01092147827148 3.814697265625e-06 C 25.77817153930664 1.750354766845703 27.61212158203125 3.433414459228516 29.51374244689941 5.049774169921875 L 1.9073486328125e-06 19.27914428710938 C 1.624732971191406 14.94059371948242 3.542593002319336 10.74484443664551 5.728601455688477 6.716704368591309 L 24.01092147827148 3.814697265625e-06 Z" stroke="none" fill="#fff"/></g><g transform="translate(0 186.485)"><path d="M 1.578828930854797 40.11983489990234 C 1.725194692611694 36.52119064331055 2.066290616989136 32.90938186645508 2.597661733627319 29.33938217163086 L 43.96612930297852 1.814379453659058 C 44.85859680175781 2.42796516418457 45.7816162109375 3.038735389709473 46.72875595092773 3.642488718032837 L 1.578828930854797 40.11983489990234 Z" stroke="none"/><path d="M 43.95738220214844 3.621879577636719 L 3.985729217529297 30.21749496459961 C 3.674419403076172 32.40969467163086 3.435897827148438 34.61594390869141 3.271110534667969 36.82422637939453 L 44.18160247802734 3.771987915039062 C 44.10668563842773 3.721988677978516 44.03192901611328 3.671939849853516 43.95738220214844 3.621879577636719 M 43.98518753051758 7.62939453125e-06 C 45.71926879882812 1.222515106201172 47.49442672729492 2.378135681152344 49.31157684326172 3.484157562255859 L 0 43.32376480102539 C 0.04188919067382812 38.27377700805664 0.4602699279785156 33.30703735351562 1.21453857421875 28.45796585083008 L 43.98518753051758 7.62939453125e-06 Z" stroke="none" fill="#fff"/></g><g transform="translate(13.526 168.261)"><path d="M 3.405920267105103 8.800745964050293 C 4.838048458099365 6.519460201263428 6.364181041717529 4.292917251586914 7.967428684234619 2.146749496459961 L 9.969712257385254 1.671882748603821 C 11.04135417938232 2.92444372177124 12.15590763092041 4.164594173431396 13.30197048187256 5.379801273345947 L 3.405920267105103 8.800745964050293 Z" stroke="none"/><path d="M 7.086930274963379 5.941164016723633 L 10.64439296722412 4.711392402648926 C 10.23447895050049 4.257254123687744 9.829200744628906 3.800268888473511 9.429590225219727 3.341583251953125 L 8.845619201660156 3.480079412460327 C 8.24782657623291 4.289743900299072 7.661404609680176 5.110409736633301 7.086930274963379 5.941164016723633 M 7.617187520736479e-07 11.56522560119629 C 2.135740756988525 7.830224990844727 4.505680561065674 4.237455368041992 7.093820571899414 0.8123251795768738 L 10.51898097991943 5.184783731237985e-06 C 12.26940059661865 2.085005283355713 14.10376071929932 4.095025062561035 16.0130615234375 6.029705047607422 L 7.617187520736479e-07 11.56522560119629 Z" stroke="none" fill="#fff"/></g><g transform="translate(158.546 185.782)"><path d="M 90.51799011230469 58.0964241027832 L 2.75889778137207 2.624476909637451 C 3.170149087905884 2.344290971755981 3.582517147064209 2.058777093887329 3.994775533676147 1.768770098686218 L 93.88053894042969 51.39540100097656 C 92.81105804443359 53.65258407592773 91.68497467041016 55.89667129516602 90.51799011230469 58.0964241027832 Z" stroke="none"/><path d="M 89.94454956054688 55.95942306518555 C 90.61812591552734 54.65866851806641 91.27643585205078 53.34464263916016 91.91603088378906 52.02420425415039 L 27.13723754882812 16.25932502746582 L 89.94454956054688 55.95942306518555 M 91.07783508300781 60.22483062744141 L 5.55889437237056e-06 2.655121088027954 C 1.323605537414551 1.800721049308777 2.621282577514648 0.913428783416748 3.894559383392334 -1.978243290068349e-06 L 95.83446502685547 50.76073837280273 C 94.34417724609375 53.97656631469727 92.76142120361328 57.12569046020508 91.07783508300781 60.22483062744141 Z" stroke="none" fill="#fff"/></g><g transform="translate(181.327 164.258)"><path d="M 85.86124420166016 20.84357833862305 L 2.726589679718018 3.109476089477539 C 3.102948427200317 2.636790990829468 3.496557474136353 2.138873100280762 3.894379138946533 1.621649026870728 L 86.43849182128906 14.65903663635254 C 86.28868865966797 16.69795608520508 86.09546661376953 18.76815414428711 85.86124420166016 20.84357833862305 Z" stroke="none"/><path d="M 84.54787445068359 19.02967262268066 C 84.65435791015625 17.99038314819336 84.75025177001953 16.95408630371094 84.83523559570312 15.92440986633301 L 27.64948844909668 6.892234802246094 L 84.54787445068359 19.02967262268066 M 87.15809631347656 22.65397453308105 L -1.971435494851903e-06 4.061602592468262 C 0.5028265714645386 3.46705961227417 0.9966408610343933 2.864088296890259 1.491397976875305 2.252645254135132 C 2.085383653640747 1.507202506065369 2.672198057174683 0.7621453404426575 3.241940975189209 2.505929160179221e-06 L 88.02939605712891 13.39171695709229 C 87.82889556884766 16.50700187683105 87.53519439697266 19.58904457092285 87.15809631347656 22.65397453308105 Z" stroke="none" fill="#fff"/></g><g transform="translate(176.268 20.067)"><path d="M 3.194574117660522 11.64768123626709 C 2.758070707321167 11.17212677001953 2.331940650939941 10.71789073944092 1.912453770637512 10.28097152709961 L 7.309264659881592 1.993470072746277 C 7.961124897003174 2.360617637634277 8.5877685546875 2.718152523040771 9.195201873779297 3.069512367248535 L 3.194574117660522 11.64768123626709 Z" stroke="none"/><path d="M 6.817398071289062 0 C 8.341697692871094 0.8461399078369141 9.857177734375 1.708819389343262 11.356858253479 2.596209526062012 L 3.342288017272949 14.05339908599854 C 2.261077880859375 12.83086967468262 1.155438423156738 11.63288974761963 -1.9073486328125e-06 10.4689998626709 L 6.817398071289062 0 Z" stroke="none" fill="#fff"/></g><g transform="translate(166.26 179.811)"><path d="M 91.34917449951172 45.14679336547852 L 2.795083045959473 2.772986173629761 C 3.220090866088867 2.423124551773071 3.632236242294312 2.078212261199951 4.033985614776611 1.736217379570007 L 93.71076965332031 38.4560661315918 C 92.96827697753906 40.71402740478516 92.17740631103516 42.95462417602539 91.34917449951172 45.14679336547852 Z" stroke="none"/><path d="M 90.51560974121094 43.08504104614258 C 90.97181701660156 41.83879852294922 91.41517639160156 40.57955169677734 91.84384918212891 39.3125114440918 L 27.99411582946777 13.16802597045898 L 90.51560974121094 43.08504104614258 M 92.16748046875 47.20123672485352 L 1.866736738520558e-06 3.098389387130737 C 1.272709608078003 2.093666315078735 2.528648138046265 1.0635586977005 3.752325057983398 4.885159796685912e-06 L 95.56671142578125 37.59514236450195 C 94.52832794189453 40.84475708007812 93.39771270751953 44.04425048828125 92.16748046875 47.20123672485352 Z" stroke="none" fill="#fff"/></g><g transform="translate(150.867 190.715)"><path d="M 87.28003692626953 70.96752166748047 L 2.683124542236328 2.486291885375977 C 3.099128246307373 2.253129482269287 3.509926795959473 2.019199132919312 3.914281129837036 1.785199284553528 L 91.67671966552734 64.39279937744141 C 90.27536773681641 66.60161590576172 88.80242156982422 68.80422973632812 87.28003692626953 70.96752166748047 Z" stroke="none"/><path d="M 86.97064971923828 68.78722381591797 C 87.88361358642578 67.46276092529297 88.77634429931641 66.12628173828125 89.64389801025391 64.78520202636719 L 25.49776268005371 19.02490043640137 L 86.97064971923828 68.78722381591797 M 87.57735443115234 73.13808441162109 L -5.806187346024672e-06 2.244184970855713 C 1.348622798919678 1.524299383163452 2.680294275283813 0.7785279154777527 3.99470853805542 1.363438241241965e-05 L 93.69931030273438 63.99309921264648 C 91.75619506835938 67.11643981933594 89.71231079101562 70.16522979736328 87.57735443115234 73.13808441162109 Z" stroke="none" fill="#fff"/></g><g transform="translate(143.321 194.735)"><path d="M 81.67314147949219 83.32747650146484 L 2.580947637557983 2.346675395965576 C 2.979389905929565 2.164528369903564 3.381044626235962 1.977796077728271 3.785374641418457 1.786720752716064 L 87.13621520996094 77.02961730957031 C 85.38230895996094 79.15514373779297 83.55203247070312 81.26507568359375 81.67314147949219 83.32747650146484 Z" stroke="none"/><path d="M 81.62998199462891 81.13650512695312 C 82.79766082763672 79.83052062988281 83.94371795654297 78.50823974609375 85.06140899658203 77.17742156982422 L 23.38391304016113 21.49958801269531 L 81.62998199462891 81.13650512695312 M 81.70598602294922 85.50791931152344 L 1.584298274792673e-06 1.850888252258301 C 1.364930152893066 1.264416813850403 2.713158845901489 0.6443453431129456 4.044658660888672 2.512904529794469e-06 L 89.20177459716797 76.87347412109375 C 86.79790496826172 79.83861541748047 84.29386138916016 82.71921539306641 81.70598602294922 85.50791931152344 Z" stroke="none" fill="#fff"/></g><g transform="translate(204.416 68.114)"><path d="M 1.898406505584717 22.75188827514648 C 1.816405415534973 21.99400329589844 1.724289059638977 21.230224609375 1.622445225715637 20.46400833129883 L 32.84284973144531 1.987921118736267 C 33.59027099609375 3.029214859008789 34.2896728515625 4.025155544281006 34.95269775390625 4.992373943328857 L 1.898406505584717 22.75188827514648 Z" stroke="none"/><path d="M 32.42066192626953 3.980745315551758 L 20.1435432434082 11.2462911605835 L 32.76248931884766 4.466346740722656 C 32.64962387084961 4.305408477783203 32.53578948974609 4.143693923950195 32.42066192626953 3.980745315551758 M 33.25671768188477 0 C 34.57937622070312 1.817428588867188 35.87795639038086 3.660129547119141 37.12643814086914 5.527259826660156 L 0.6198768615722656 25.14160919189453 C 0.4686355590820312 23.30756950378418 0.2596778869628906 21.49032974243164 -3.814697265625e-06 19.68117904663086 L 33.25671768188477 0 Z" stroke="none" fill="#fff"/></g><g transform="translate(205.245 83.951)"><path d="M 1.608351945877075 22.20916175842285 C 1.636175990104675 21.43943786621094 1.65549635887146 20.66733169555664 1.666186571121216 19.89691543579102 L 42.03763961791992 1.923332691192627 C 42.70400619506836 3.108447551727295 43.35670471191406 4.308402061462402 43.98984527587891 5.512349605560303 L 1.608351945877075 22.20916175842285 Z" stroke="none"/><path d="M 41.39374542236328 3.851938247680664 L 20.49279975891113 13.15715026855469 L 41.87448883056641 4.733518600463867 C 41.71524047851562 4.439056396484375 41.55499267578125 4.14520263671875 41.39374542236328 3.851938247680664 M 42.66968154907227 3.814697265625e-06 C 43.85869979858398 2.068735122680664 44.99930953979492 4.170663833618164 46.08710098266602 6.298315048217773 L 0 24.45500564575195 C 0.1078414916992188 22.62939453125 0.1668510437011719 20.77825546264648 0.1751022338867188 18.91881561279297 L 42.66968154907227 3.814697265625e-06 Z" stroke="none" fill="#fff"/></g><g transform="translate(173.906 172.675)"><path d="M 89.76836395263672 32.55696868896484 L 2.78969669342041 2.933299541473389 C 3.190590143203735 2.528910398483276 3.593393087387085 2.114848375320435 4.001076698303223 1.688106775283813 L 91.18654632568359 26.05556678771973 C 90.75690460205078 28.23892784118652 90.28213500976562 30.41538429260254 89.76836395263672 32.55696868896484 Z" stroke="none"/><path d="M 88.68556213378906 30.60356712341309 C 88.94941711425781 29.45081901550293 89.20166778564453 28.28972625732422 89.44121551513672 27.1252498626709 L 28.29626274108887 10.03584957122803 L 88.68556213378906 30.60356712341309 M 90.8348388671875 34.50481033325195 L -4.419817287271144e-06 3.567780494689941 C 1.214081287384033 2.41196608543396 2.386224269866943 1.222551822662354 3.533752679824829 8.981322935142089e-06 L 92.92045593261719 24.98269462585449 C 92.31742095947266 28.19026565551758 91.6229248046875 31.36453819274902 90.8348388671875 34.50481033325195 Z" stroke="none" fill="#fff"/></g><g transform="translate(194.559 138.237)"><path d="M 2.429801225662231 8.443188667297363 C 2.73790454864502 7.790587425231934 3.036316156387329 7.138514041900635 3.323611974716187 6.490012168884277 L 71.52299499511719 1.593963265419006 C 71.80828857421875 3.351670026779175 72.06334686279297 5.106272220611572 72.28531646728516 6.83825159072876 L 2.429801225662231 8.443188667297363 Z" stroke="none"/><path d="M 25.27639770507812 6.417881965637207 L 70.57662200927734 5.377104759216309 C 70.47540283203125 4.650004863739014 70.36857604980469 3.920249700546265 70.25627136230469 3.188767194747925 L 25.27639770507812 6.417881965637207 M -1.92260745279782e-06 9.999404907226562 C 0.8205980658531189 8.375329971313477 1.591210603713989 6.733692646026611 2.311810493469238 5.058792591094971 L 72.778076171875 5.314636382536264e-06 C 73.24761962890625 2.746992826461792 73.64937591552734 5.510730266571045 73.97574615478516 8.299805641174316 L -1.92260745279782e-06 9.999404907226562 Z" stroke="none" fill="#fff"/></g><g transform="translate(199.692 119.234)"><path d="M 2.195713520050049 15.06954860687256 C 2.426525115966797 14.35555648803711 2.647143602371216 13.64593124389648 2.856369495391846 12.94445323944092 L 62.18706130981445 1.72712516784668 C 62.6231689453125 3.255346298217773 63.04627990722656 4.826858997344971 63.46581268310547 6.476715564727783 L 2.195713520050049 15.06954860687256 Z" stroke="none"/><path d="M 61.11444091796875 3.45649528503418 L 23.52042007446289 10.56418418884277 L 61.59185791015625 5.224854469299316 C 61.43381118774414 4.626562118530273 61.27484512329102 4.037751197814941 61.11444091796875 3.45649528503418 M 63.2477912902832 5.7220458984375e-06 C 64.00131225585938 2.554494857788086 64.68773651123047 5.134061813354492 65.32511138916016 7.730639457702637 L 7.62939453125e-06 16.89216232299805 C 0.6030044555664062 15.1669282913208 1.164840698242188 13.4170503616333 1.674991607666016 11.64122867584229 L 63.2477912902832 5.7220458984375e-06 Z" stroke="none" fill="#fff"/></g><g transform="translate(186.946 29.606)"><path d="M 3.009340763092041 15.58214569091797 C 2.637504577636719 15.0142650604248 2.260507583618164 14.45034885406494 1.879987239837646 13.89287090301514 L 11.71601676940918 2.027688503265381 C 12.4267110824585 2.534746170043945 13.10597896575928 3.026536226272583 13.76163768768311 3.50873589515686 L 3.009340763092041 15.58214569091797 Z" stroke="none"/><path d="M 11.44854354858398 0 C 12.97265243530273 1.072288513183594 14.48004341125488 2.160919189453125 15.97144317626953 3.282818794250488 L 2.814473152160645 18.05635833740234 C 1.909523010253906 16.61596870422363 0.9716825485229492 15.20055961608887 2.86102294921875e-06 13.81034851074219 L 11.44854354858398 0 Z" stroke="none" fill="#fff"/></g><g transform="translate(201.075 53.709)"><path d="M 2.337656021118164 21.56891632080078 C 2.148868799209595 20.85862350463867 1.948009133338928 20.13864707946777 1.73329758644104 19.40242004394531 L 24.61351203918457 2.024094104766846 C 25.35105895996094 2.840691328048706 26.07497787475586 3.65968132019043 26.77992630004883 4.475001335144043 L 2.337656021118164 21.56891632080078 Z" stroke="none"/><path d="M 24.41876602172852 4.055631637573242 L 20.42666244506836 7.087774276733398 L 24.55015563964844 4.203973770141602 C 24.50641632080078 4.154525756835938 24.46262359619141 4.105081558227539 24.41876602172852 4.055631637573242 M 24.7984676361084 0 C 26.23031806945801 1.557659149169922 27.62892913818359 3.140659332275391 28.99405860900879 4.756959915161133 L 1.415107727050781 24.0445384979248 C 0.9958877563476562 22.28583908081055 0.519378662109375 20.55238914489746 -1.9073486328125e-06 18.83530807495117 L 24.7984676361084 0 Z" stroke="none" fill="#fff"/></g><g transform="translate(188.311 154.46)"><path d="M 79.90697479248047 10.46352958679199 L 2.609193325042725 3.275677680969238 C 2.974462270736694 2.698043346405029 3.333653926849365 2.11733603477478 3.685141086578369 1.536147117614746 L 79.75453186035156 4.732592105865479 C 79.83769226074219 6.637388706207275 79.88871765136719 8.555707931518555 79.90697479248047 10.46352958679199 Z" stroke="none"/><path d="M 78.38282012939453 8.815330505371094 C 78.3656005859375 7.934510707855225 78.34140014648438 7.053167343139648 78.31028747558594 6.173238277435303 L 26.60519599914551 4.000577449798584 L 78.38282012939453 8.815330505371094 M 81.41458892822266 12.11018848419189 L 1.130777945945738e-06 4.53952169418335 C 0.9885744452476501 3.057055234909058 1.943134427070618 1.541388511657715 2.856561183929443 1.862436874944251e-06 L 81.1873779296875 3.291481971740723 C 81.33826446533203 6.19782829284668 81.41458892822266 9.112054824829102 81.41458892822266 12.0514554977417 L 81.41458892822266 12.11018848419189 Z" stroke="none" fill="#fff"/></g><g transform="translate(203.361 101.052)"><path d="M 1.927605986595154 19.67499923706055 C 2.061599969863892 18.92885398864746 2.186468124389648 18.17702293395996 2.301569700241089 17.42316436767578 L 52.1883659362793 1.837124466896057 C 52.76247406005859 3.208052158355713 53.32394409179688 4.605758190155029 53.86721420288086 6.016401767730713 L 1.927605986595154 19.67499923706055 Z" stroke="none"/><path d="M 51.32632446289062 3.677955627441406 L 21.89435958862305 12.87332916259766 L 51.85651016235352 4.994159698486328 C 51.68135452270508 4.553503036499023 51.50452423095703 4.114519119262695 51.32632446289062 3.677955627441406 M 53.03852844238281 3.814697265625e-06 C 54.03495025634766 2.319774627685547 54.97317123413086 4.664863586425781 55.86066055297852 7.043184280395508 L 0 21.7329044342041 C 0.3767585754394531 19.93237495422363 0.6950721740722656 18.1065845489502 0.9547386169433594 16.2724437713623 L 53.03852844238281 3.814697265625e-06 Z" stroke="none" fill="#fff"/></g><g transform="translate(135.951 197.942)"><path d="M 73.85660552978516 94.77716064453125 L 2.451803684234619 2.213199615478516 C 2.835127115249634 2.072830200195312 3.22826623916626 1.926421046257019 3.632793426513672 1.773394703865051 L 80.37212371826172 88.94187927246094 C 78.22111511230469 90.97038269042969 76.03812408447266 92.92546081542969 73.85660552978516 94.77716064453125 Z" stroke="none"/><path d="M 74.07945251464844 92.61021423339844 C 75.48606109619141 91.39205932617188 76.89055633544922 90.13294982910156 78.284423828125 88.84050750732422 L 20.80691146850586 23.55159187316895 L 74.07945251464844 92.61021423339844 M 73.62417602539062 96.93167114257812 L -5.260761099634692e-06 1.490670204162598 C 1.373210072517395 1.021639347076416 2.72987174987793 0.5184394121170044 4.070025444030762 8.616755621915217e-06 L 82.45184326171875 89.03419494628906 C 79.60408782958984 91.76444244384766 76.66468811035156 94.40282440185547 73.62417602539062 96.93167114257812 Z" stroke="none" fill="#fff"/></g><g transform="translate(32.771 201.627)"><path d="M 10.87925338745117 111.4016647338867 C 7.694736003875732 109.1066436767578 4.647299289703369 106.6325302124023 1.791235685348511 104.0229873657227 L 44.8995361328125 1.771892666816711 C 45.45150756835938 1.908422350883484 45.99485778808594 2.03752589225769 46.53314590454102 2.160038471221924 L 10.87925338745117 111.4016647338867 Z" stroke="none"/><path d="M 40.12731552124023 16.95261383056641 L 3.587177276611328 103.6242828369141 C 5.666145324707031 105.4826354980469 7.843025207519531 107.2678298950195 10.09720993041992 108.9632415771484 L 40.12731552124023 16.95261383056641 M 44.01870346069336 1.52587890625e-05 C 45.49282073974609 0.3852157592773438 46.9752197265625 0.7367782592773438 48.47433471679688 1.04681396484375 L 11.6746711730957 113.7990112304688 C 7.553718566894531 110.9507446289062 3.651287078857422 107.8191146850586 3.814697265625e-06 104.410514831543 L 44.01870346069336 1.52587890625e-05 Z" stroke="none" fill="#fff"/></g><g transform="translate(163.437 12.303)"><path d="M 3.247978925704956 7.631859302520752 C 2.800178289413452 7.282780647277832 2.352034091949463 6.940661430358887 1.905123472213745 6.606719970703125 L 4.232285499572754 1.930005550384521 C 4.79093599319458 2.168791055679321 5.354312419891357 2.413373947143555 5.920299053192139 2.662837743759155 L 3.247978925704956 7.631859302520752 Z" stroke="none"/><path d="M 3.517223834991455 -9.5367431640625e-07 C 5.024593353271484 0.628178596496582 6.524083614349365 1.281338691711426 8.006103515625 1.951328754425049 L 3.7182936668396 9.924258232116699 C 2.503843784332275 8.935789108276367 1.264433860778809 7.981308937072754 3.814697265625e-06 7.068278312683105 L 3.517223834991455 -9.5367431640625e-07 Z" stroke="none" fill="#fff"/></g><g transform="translate(49.68 203.051)"><path d="M 12.02777767181396 120.3252716064453 C 8.528133392333984 118.7790222167969 5.085999488830566 117.0095825195312 1.761569261550903 115.0476684570312 L 34.4632453918457 1.72455620765686 C 34.96939086914062 1.815843462944031 35.46041870117188 1.900535225868225 35.93936920166016 1.979151844978333 L 12.02777767181396 120.3252716064453 Z" stroke="none"/><path d="M 30.80830574035645 19.80035400390625 L 3.527027130126953 114.3398132324219 C 5.943767547607422 115.7276153564453 8.419515609741211 117.0118789672852 10.93076133728027 118.1806640625 L 30.80830574035645 19.80035400390625 M 33.39969253540039 7.62939453125e-06 C 34.83134841918945 0.2760467529296875 36.27182006835938 0.5276260375976562 37.72076416015625 0.7364120483398438 L 13.1320743560791 122.4336853027344 C 8.575946807861328 120.5238265991211 4.187656402587891 118.2792282104492 3.814697265625e-06 115.7419738769531 L 33.39969253540039 7.62939453125e-06 Z" stroke="none" fill="#fff"/></g><g transform="translate(68.993 204.064)"><path d="M 12.54898166656494 125.7524795532227 C 8.873780250549316 124.9716262817383 5.231494426727295 123.9807815551758 1.686215043067932 122.7972869873047 L 21.605712890625 1.665201663970947 C 22.08626174926758 1.721181511878967 22.55370330810547 1.772092223167419 23.01054191589355 1.818201780319214 L 12.54898166656494 125.7524795532227 Z" stroke="none"/><path d="M 19.82242012023926 21.75360107421875 L 3.375141143798828 121.7708358764648 C 5.944198608398438 122.5910568237305 8.559759140014648 123.3085479736328 11.19859504699707 123.9170379638672 L 19.82242012023926 21.75360107421875 M 20.3593864440918 7.62939453125e-06 C 21.77472496032715 0.1839523315429688 23.198486328125 0.3431320190429688 24.63048553466797 0.4603729248046875 L 13.90184593200684 127.5588150024414 C 9.13636589050293 126.6298141479492 4.497165679931641 125.3730545043945 5.7220458984375e-06 123.8070526123047 L 20.3593864440918 7.62939453125e-06 Z" stroke="none" fill="#fff"/></g><g transform="translate(115.641 0)"><path d="M3.9.343,3.836.863C2.563.645,1.29.46,0,.31L.042,0C1.331.092,2.622.209,3.9.343Z" stroke="none"/><path d="M 0.04208564758300781 7.152557373046875e-07 C 1.331095695495605 0.09236067533493042 2.621655941009521 0.2091407179832458 3.902995824813843 0.3432106971740723 L 3.835885763168335 0.8626806735992432 C 2.562825679779053 0.645000696182251 1.289775848388672 0.4604707062244415 -4.291534423828125e-06 0.3097707033157349 L 0.04208564758300781 7.152557373046875e-07 Z" stroke="none" fill="#fff"/></g><g transform="translate(132.668 2.245)"><path d="M4.522.821l-.57,2.16C2.646,2.521,1.331,2.094,0,1.692L.394,0C1.776.26,3.149.528,4.522.821Z" stroke="none"/><path d="M 0.3936319351196289 7.152557373046875e-07 C 1.775691747665405 0.2595908641815186 3.14890193939209 0.5279207229614258 4.52230167388916 0.8210508823394775 L 3.952601909637451 2.981500864028931 C 2.646081924438477 2.520950794219971 1.331101894378662 2.093940734863281 1.9073486328125e-06 1.691620826721191 L 0.3936319351196289 7.152557373046875e-07 Z" stroke="none" fill="#fff"/></g><g transform="translate(148.773 6.357)"><path d="M 3.137810230255127 3.959986925125122 C 2.689173460006714 3.719630718231201 2.266907691955566 3.497340679168701 1.860512137413025 3.287590265274048 L 2.379250526428223 1.845398545265198 C 2.847808122634888 1.988595008850098 3.320842742919922 2.135730266571045 3.797268152236938 2.286466598510742 L 3.137810230255127 3.959986925125122 Z" stroke="none"/><path d="M 1.448937892913818 -1.430511474609375e-06 C 2.897508144378662 0.4268388748168945 4.346258163452148 0.8795084953308105 5.77905797958374 1.348708629608154 L 3.911267995834351 6.088638782501221 C 2.621088027954102 5.377128601074219 1.323418140411377 4.681488513946533 -1.9073486328125e-06 4.028328895568848 L 1.448937892913818 -1.430511474609375e-06 Z" stroke="none" fill="#fff"/></g><g transform="translate(195.254 40.845)"><path d="M 2.716687202453613 19.02993965148926 C 2.424999713897705 18.37180328369141 2.12576699256897 17.71615982055664 1.820300698280334 17.06591033935547 L 17.49709510803223 2.035837888717651 C 18.22775268554688 2.683653116226196 18.94588470458984 3.332282781600952 19.64667129516602 3.977350473403931 L 2.716687202453613 19.02993965148926 Z" stroke="none"/><path d="M 17.45309066772461 1.9073486328125e-06 C 18.9520206451416 1.306482315063477 20.42633056640625 2.638181686401367 21.87545967102051 4.002862930297852 L 2.160539627075195 21.53156280517578 C 1.481840133666992 19.9067325592041 0.7613906860351562 18.30746269226074 0 16.73309326171875 L 17.45309066772461 1.9073486328125e-06 Z" stroke="none" fill="#fff"/></g></g><g transform="translate(0 0)"><path d="M0,86.672,52.8,0A101.075,101.075,0,0,1,59.99,13.417L4.807,88.49Q2.433,87.523,0,86.672Z" transform="translate(200.949 47.67)" stroke="#000" stroke-width="3"/><path d="M0,71.2,55.484,0a100.733,100.733,0,0,1,4.422,14.6L4.992,73.491Q2.529,72.271,0,71.2Z" transform="translate(207.347 65.635)" stroke="#000" stroke-width="3"/><path d="M0,100.8,46.414,0A101.98,101.98,0,0,1,56.07,11.641L4.614,102.208Q2.329,101.442,0,100.8Z" transform="translate(194.676 31.574)" stroke="#000" stroke-width="3"/><path d="M0,.285,1.29,0C1.047.318.8.636.545.946.369.72.185.5,0,.285Z" transform="translate(246.576 166.076)" stroke="#000" stroke-width="3"/><path d="M0,25.887,40.87,0a100.3,100.3,0,0,1-3.711,13.995L5.435,30.091C3.677,28.625,1.859,27.227,0,25.887Z" transform="translate(227.029 122.074)" stroke="#000" stroke-width="3"/><path d="M0,55.258,54.3,0a101.632,101.632,0,0,1,1.541,15.092L5.176,58.106C3.484,57.109,1.759,56.154,0,55.258Z" transform="translate(213.838 84.621)" stroke="#000" stroke-width="3"/><path d="M0,.008C.352,0,.7,0,1.064,0c.5,0,1,0,1.507.008a102.557,102.557,0,0,1,11.415.8L8.073,128.841q-2.124-.138-4.271-.2Z" transform="translate(165.95 0)" stroke="#000" stroke-width="3"/><path d="M0,1.24Q6.758.348,13.685,0L22.6,128.4h-.519c-1.215,0-2.429.025-3.627.067Z" transform="translate(144.929 0.21)" stroke="#000" stroke-width="3"/><path d="M0,4.455Q6.031,1.993,12.295,0l38.19,121.529c-1.357.159-2.705.352-4.037.578Z" transform="translate(104.034 7.83)" stroke="#000" stroke-width="3"/><path d="M0,5.812Q5.5,2.71,11.273,0L62.846,114.712c-1.357.251-2.705.536-4.046.846Z" transform="translate(84.981 15.686)" stroke="#000" stroke-width="3"/><path d="M0,2.914Q6.469,1.194,13.124,0L36.917,126.135c-1.365.075-2.721.176-4.07.31Z" transform="translate(124.142 2.647)" stroke="#000" stroke-width="3"/><path d="M0,6.968Q4.912,3.3,10.1,0L73.591,105.91c-1.365.36-2.714.745-4.054,1.156Z" transform="translate(67.326 26.038)" stroke="#000" stroke-width="3"/><path d="M0,14.229,29.513,0a99.477,99.477,0,0,1-5.728,12.563L5.5,19.279Q2.852,16.654,0,14.229Z" transform="translate(233.645 138.924)" stroke="#000" stroke-width="3"/><path d="M0,39.84,49.312,0A102.326,102.326,0,0,1,48.1,14.865L5.326,43.324C3.593,42.1,1.817,40.946,0,39.84Z" transform="translate(220.413 103.724)" stroke="#000" stroke-width="3"/><path d="M0,5.536,16.013,0A100.943,100.943,0,0,1,8.92,10.754l-3.426.812Q2.869,8.438,0,5.536Z" transform="translate(240.186 153.706)" stroke="#000" stroke-width="3"/><path d="M0,9.464Q2.236,4.639,4.757,0L95.835,57.569q-1.985,1.281-3.894,2.655Z" transform="translate(15.343 87.527)" stroke="#000" stroke-width="3"/><path d="M0,9.262Q.3,4.589.871,0L88.029,18.592c-.5.595-1,1.2-1.491,1.809-.6.746-1.181,1.491-1.751,2.253Z" transform="translate(0.369 146.62)" stroke="#000" stroke-width="3"/><path d="M0,11.456,8.015,0C9.1,1.223,10.2,2.421,11.356,3.584L4.539,14.053Q2.253,12.785,0,11.456Z" transform="translate(82.1 299.413)" stroke="#000" stroke-width="3"/><path d="M0,9.606Q1.558,4.731,3.4,0L95.567,44.1c-1.273,1-2.529,2.035-3.752,3.1Z" transform="translate(7.897 106.521)" stroke="#000" stroke-width="3"/><path d="M0,9.145Q2.914,4.46,6.122,0L93.7,70.894q-2.023,1.081-3.995,2.245Z" transform="translate(25.158 69.68)" stroke="#000" stroke-width="3"/><path d="M0,8.635Q3.605,4.188,7.5,0L89.2,83.658q-2.047.879-4.045,1.851Z" transform="translate(37.202 53.29)" stroke="#000" stroke-width="3"/><path d="M0,19.614,36.507,0q.226,2.751.62,5.46L3.869,25.141C2.546,23.324,1.248,21.481,0,19.614Z" transform="translate(28.182 240.278)" stroke="#000" stroke-width="3"/><path d="M0,18.157,46.088,0c-.109,1.826-.168,3.677-.176,5.536L3.417,24.455Q1.633,21.352,0,18.157Z" transform="translate(18.392 225.128)" stroke="#000" stroke-width="3"/><path d="M0,9.522Q.9,4.711,2.085,0L92.92,30.937c-1.215,1.156-2.387,2.345-3.534,3.568Z" transform="translate(2.898 126.353)" stroke="#000" stroke-width="3"/><path d="M0,1.7,73.976,0c-.821,1.625-1.591,3.266-2.312,4.942L1.2,10Q.495,5.88,0,1.7Z" transform="translate(1.189 185.296)" stroke="#000" stroke-width="3"/><path d="M0,9.162,65.324,0q-.9,2.587-1.675,5.251L2.077,16.893Q.946,13.06,0,9.162Z" transform="translate(4.707 197.406)" stroke="#000" stroke-width="3"/><path d="M0,14.774,13.157,0q1.357,2.161,2.814,4.246L4.522,18.056C3,16.984,1.49,15.9,0,14.774Z" transform="translate(66.807 285.871)" stroke="#000" stroke-width="3"/><path d="M0,19.287,27.578,0c.419,1.758.9,3.492,1.415,5.209L4.2,24.044Q2.047,21.708,0,19.287Z" transform="translate(39.656 255.78)" stroke="#000" stroke-width="3"/><path d="M0,.059V0L81.413,7.571q-1.482,2.223-2.856,4.539L.227,8.819C.076,5.913,0,3,0,.059Z" transform="translate(0 166.963)" stroke="#000" stroke-width="3"/><path d="M0,14.69,55.861,0c-.377,1.8-.7,3.626-.955,5.461L2.822,21.733Q1.328,18.253,0,14.69Z" transform="translate(10.502 210.748)" stroke="#000" stroke-width="3"/><path d="M0,7.9Q4.271,3.8,8.827,0L82.451,95.441c-1.373.469-2.73.971-4.07,1.49Z" transform="translate(51.322 38.659)" stroke="#000" stroke-width="3"/><path d="M0,112.752,36.8,0A102.435,102.435,0,0,1,48.474,9.389L4.456,113.8Q2.245,113.221,0,112.752Z" transform="translate(188.479 18.107)" stroke="#000" stroke-width="3"/><path d="M0,7.973,4.288,0C5.5.988,6.742,1.944,8.007,2.855L4.489,9.924Q2.228,8.982,0,7.973Z" transform="translate(98.28 311.306)" stroke="#000" stroke-width="3"/><path d="M0,121.7,24.589,0A99.714,99.714,0,0,1,37.721,6.691L4.321,122.433C2.89,122.157,1.45,121.906,0,121.7Z" transform="translate(182.323 8.048)" stroke="#000" stroke-width="3"/><path d="M0,127.1,10.729,0a101.1,101.1,0,0,1,13.9,3.752L4.271,127.559C2.856,127.375,1.432,127.216,0,127.1Z" transform="translate(176.1 1.909)" stroke="#000" stroke-width="3"/><path d="M0,.519.067,0C1.341.218,2.613.4,3.9.553l-.041.31C2.571.772,1.281.654,0,.519Z" transform="translate(150.18 332.67)" stroke="#000" stroke-width="3"/><path d="M0,2.161.569,0C1.876.461,3.19.888,4.522,1.291L4.129,2.981C2.747,2.723,1.374,2.454,0,2.161Z" transform="translate(132.534 328.307)" stroke="#000" stroke-width="3"/><path d="M0,4.74,1.868,0c1.29.712,2.588,1.407,3.911,2.06L4.33,6.089C2.881,5.661,1.432,5.209,0,4.74Z" transform="translate(115.173 321.088)" stroke="#000" stroke-width="3"/><path d="M0,17.529,19.714,0q1.017,2.437,2.161,4.8L4.422,21.532Q2.173,19.573,0,17.529Z" transform="translate(52.595 271.156)" stroke="#000" stroke-width="3"/></g></g></g></svg>
